<svg width="33" height="32" viewBox="0 0 33 32" fill="none" xmlns="http://www.w3.org/2000/svg">
<g opacity="0.5">
<rect width="32" height="32" transform="translate(0.852539)" fill="white"/>
<path d="M20.5173 6.12009L20.2299 6.70311C20.5311 6.85154 20.8957 6.74622 21.0713 6.46008L20.5173 6.12009ZM23.6288 8.77523L23.0608 8.45926C22.9392 8.67791 22.9538 8.94696 23.0985 9.15109L23.6288 8.77523ZM24.0259 7.55155L23.3803 7.47551V7.47551L24.0259 7.55155ZM21.9879 3.72386L22.2623 3.1346C21.9629 2.99523 21.6066 3.10244 21.4339 3.38387L21.9879 3.72386ZM16.8525 5.91924C18.0662 5.91924 19.2121 6.2014 20.2299 6.70311L20.8047 5.53707C19.612 4.94919 18.2699 4.61924 16.8525 4.61924V5.91924ZM9.20249 13.5693C9.20249 9.34427 12.6275 5.91924 16.8525 5.91924V4.61924C11.9095 4.61924 7.90249 8.6263 7.90249 13.5693H9.20249ZM16.8525 21.2193C12.6275 21.2193 9.20249 17.7942 9.20249 13.5693H7.90249C7.90249 18.5122 11.9095 22.5193 16.8525 22.5193V21.2193ZM24.5025 13.5693C24.5025 17.7942 21.0775 21.2193 16.8525 21.2193V22.5193C21.7954 22.5193 25.8025 18.5122 25.8025 13.5693H24.5025ZM23.0985 9.15109C23.9828 10.3988 24.5025 11.9224 24.5025 13.5693H25.8025C25.8025 11.6443 25.1941 9.85962 24.1591 8.39937L23.0985 9.15109ZM24.1968 9.09121C24.429 8.67383 24.6055 8.18686 24.6714 7.6276L23.3803 7.47551C23.3363 7.84966 23.219 8.17487 23.0608 8.45926L24.1968 9.09121ZM24.6714 7.6276C24.9341 5.39801 23.475 3.69923 22.2623 3.1346L21.7136 4.31312C22.5144 4.68598 23.5656 5.90237 23.3803 7.47551L24.6714 7.6276ZM21.4339 3.38387L19.9633 5.7801L21.0713 6.46008L22.5419 4.06385L21.4339 3.38387Z" fill="#289C8D"/>
<path d="M6.85254 28.0635C7.02578 27.1625 8.23994 21.8693 16.8525 21.8693C25.4651 21.8693 26.6793 27.1625 26.8525 28.0635H6.85254Z" stroke="#289C8D" stroke-width="1.3" stroke-linecap="round" stroke-linejoin="round"/>
<path d="M13.4539 22.543L16.8525 27.6817L20.2512 22.543" stroke="#289C8D" stroke-width="1.3" stroke-linecap="round" stroke-linejoin="round"/>
<path d="M14.7524 17.7338C14.9587 17.9617 15.8025 18.4338 16.8524 18.4338C17.9024 18.4338 18.7462 17.9617 18.9524 17.7338" stroke="#289C8D" stroke-width="1.31606" stroke-linecap="round" stroke-linejoin="round"/>
</g>
</svg>
