<svg width="33" height="33" viewBox="0 0 33 33" fill="none" xmlns="http://www.w3.org/2000/svg">
<g clip-path="url(#clip0_308_17957)">
<g clip-path="url(#clip1_308_17957)">
<path d="M15.4061 6.68415L4.65672 11.913V26.3266C4.65672 27.0446 5.23875 27.6266 5.95672 27.6266H11.8473H21.0049H26.7749C27.4929 27.6266 28.0749 27.0446 28.0749 26.3266V11.913L21.0049 8.47392L17.3256 6.68415C16.7197 6.38942 16.012 6.38942 15.4061 6.68415Z" fill="#478179"/>
<path d="M4.65672 11.913L15.4061 6.68415C16.012 6.38942 16.7197 6.38942 17.3256 6.68415L21.0049 8.47392L28.0749 11.913M4.65672 11.913V26.3266C4.65672 27.0446 5.23875 27.6266 5.95672 27.6266H11.8473H21.0049H26.7749C27.4929 27.6266 28.0749 27.0446 28.0749 26.3266V11.913M4.65672 11.913L1.86583 13.2706M28.0749 11.913L30.8658 13.2706" stroke="#478179" stroke-width="1.3" stroke-linecap="round" stroke-linejoin="round"/>
<path d="M21.0048 8.474V28.8412M24.4611 20.2765H11.8472M3.53369 20.2765H11.8472M11.8472 20.2765V28.8412M7.89451 15.6978H16.3657" stroke="white" stroke-width="1.3" stroke-linecap="round" stroke-linejoin="round"/>
<path d="M15.8624 7.40736C16.18 7.25288 16.551 7.25288 16.8685 7.40736L30.4937 14.0351C30.9158 14.2405 31.4245 14.0647 31.6298 13.6426C31.8352 13.2204 31.6594 12.7117 31.2373 12.5064L17.6122 5.87863C16.8251 5.49579 15.9058 5.49579 15.1188 5.87863L1.49366 12.5064C1.07152 12.7117 0.895767 13.2204 1.10111 13.6426C1.30646 14.0647 1.81515 14.2405 2.23729 14.0351L15.8624 7.40736Z" fill="#478179" stroke="#478179" stroke-width="0.4" stroke-linecap="round" stroke-linejoin="round"/>
<rect x="12.4819" y="20.905" width="7.86133" height="7.36401" fill="#FEAA35"/>
</g>
</g>
<defs>
<clipPath id="clip0_308_17957">
<rect width="32" height="32" fill="white" transform="translate(0.365723 0.921997)"/>
</clipPath>
<clipPath id="clip1_308_17957">
<rect width="32" height="32" fill="white" transform="translate(0.365723 0.921997)"/>
</clipPath>
</defs>
</svg>
