<svg width="33" height="33" viewBox="0 0 33 33" fill="none" xmlns="http://www.w3.org/2000/svg">
<g opacity="0.5" clip-path="url(#clip0_308_17886)">
<path d="M4.06592 11.222C4.06592 10.504 4.64795 9.922 5.36592 9.922H25.5659C26.2839 9.922 26.8659 10.504 26.8659 11.222V26.622C26.8659 27.34 26.2839 27.922 25.5659 27.922H5.36592C4.64795 27.922 4.06592 27.34 4.06592 26.622V11.222Z" stroke="#289C8D" stroke-width="1.3" stroke-linecap="round" stroke-linejoin="round"/>
<path fill-rule="evenodd" clip-rule="evenodd" d="M29.0708 11.422C29.0708 12.6059 28.7543 13.7159 28.2012 14.6719H28.206C26.3609 18.443 24.0042 20.7555 23.0315 21.6095C22.7694 21.8395 22.3912 21.84 22.1285 21.6107C21.1514 20.7578 18.7819 18.4449 16.9372 14.6719H16.9404C16.3873 13.7159 16.0708 12.6059 16.0708 11.422C16.0708 7.83215 18.9809 4.922 22.5708 4.922C26.1607 4.922 29.0708 7.83215 29.0708 11.422ZM22.5708 13.8594C23.917 13.8594 25.0083 12.7681 25.0083 11.4219C25.0083 10.0757 23.917 8.98443 22.5708 8.98443C21.2247 8.98443 20.1333 10.0757 20.1333 11.4219C20.1333 12.7681 21.2247 13.8594 22.5708 13.8594Z" fill="white"/>
<path d="M28.2012 14.6719L27.6432 14.3492L27.0836 15.3166H28.2012V14.6719ZM28.206 14.6719L28.7851 14.9553L29.2391 14.0273H28.206V14.6719ZM23.0315 21.6095L22.6061 21.125H22.6061L23.0315 21.6095ZM22.1285 21.6107L22.5525 21.1251H22.5525L22.1285 21.6107ZM16.9372 14.6719V14.0273H15.9044L16.358 14.9551L16.9372 14.6719ZM16.9404 14.6719V15.3166H18.058L17.4984 14.3492L16.9404 14.6719ZM28.7593 14.9947C29.3675 13.9432 29.7155 12.7223 29.7155 11.422H28.4261C28.4261 12.4896 28.141 13.4886 27.6432 14.3492L28.7593 14.9947ZM28.206 14.0273H28.2012V15.3166H28.206V14.0273ZM23.4568 22.0939C24.4718 21.2028 26.8916 18.8252 28.7851 14.9553L27.6269 14.3886C25.8301 18.0608 23.5366 20.3082 22.6061 21.125L23.4568 22.0939ZM21.7046 22.0964C22.2106 22.5381 22.9519 22.5371 23.4568 22.0939L22.6061 21.125C22.5987 21.1315 22.5929 21.1344 22.5893 21.1357C22.5855 21.1372 22.5822 21.1377 22.5793 21.1377C22.5764 21.1377 22.5732 21.1372 22.5694 21.1358C22.5658 21.1344 22.5599 21.1316 22.5525 21.1251L21.7046 22.0964ZM16.358 14.9551C18.2515 18.8279 20.685 21.2063 21.7046 22.0964L22.5525 21.1251C21.6179 20.3092 19.3122 18.0618 17.5163 14.3888L16.358 14.9551ZM16.9404 14.0273H16.9372V15.3166H16.9404V14.0273ZM15.4261 11.422C15.4261 12.7223 15.7741 13.9432 16.3823 14.9947L17.4984 14.3492C17.0006 13.4886 16.7155 12.4896 16.7155 11.422H15.4261ZM22.5708 4.27734C18.6249 4.27734 15.4261 7.47611 15.4261 11.422H16.7155C16.7155 8.18818 19.337 5.56666 22.5708 5.56666V4.27734ZM29.7155 11.422C29.7155 7.47611 26.5167 4.27734 22.5708 4.27734V5.56666C25.8046 5.56666 28.4261 8.18818 28.4261 11.422H29.7155ZM24.3637 11.4219C24.3637 12.4121 23.561 13.2148 22.5708 13.2148V14.5041C24.2731 14.5041 25.653 13.1242 25.653 11.4219H24.3637ZM22.5708 9.62909C23.561 9.62909 24.3637 10.4318 24.3637 11.4219H25.653C25.653 9.71969 24.2731 8.33976 22.5708 8.33976V9.62909ZM20.778 11.4219C20.778 10.4318 21.5807 9.62909 22.5708 9.62909V8.33976C20.8686 8.33976 19.4887 9.71969 19.4887 11.4219H20.778ZM22.5708 13.2148C21.5807 13.2148 20.778 12.4121 20.778 11.4219H19.4887C19.4887 13.1242 20.8686 14.5041 22.5708 14.5041V13.2148Z" fill="#289C8D"/>
<circle cx="22.5708" cy="11.4219" r="2.4375" fill="white" stroke="#289C8D" stroke-width="1.28932"/>
<path fill-rule="evenodd" clip-rule="evenodd" d="M3.84033 17.1462C3.84033 16.7872 4.13135 16.4962 4.49033 16.4962H12.965C14.353 16.4962 15.4781 17.6214 15.4781 19.0094C15.4781 20.3973 14.353 21.5225 12.965 21.5225H9.25139C8.5814 21.5225 8.03826 22.0656 8.03826 22.7356C8.03826 23.4056 8.5814 23.9488 9.25139 23.9488H22.4648C22.8238 23.9488 23.1148 24.2398 23.1148 24.5988C23.1148 24.9577 22.8238 25.2488 22.4648 25.2488H9.25139C7.86343 25.2488 6.73826 24.1236 6.73826 22.7356C6.73826 21.3477 7.86343 20.2225 9.25139 20.2225H12.965C13.635 20.2225 14.1781 19.6793 14.1781 19.0094C14.1781 18.3394 13.635 17.7962 12.965 17.7962H4.49033C4.13135 17.7962 3.84033 17.5052 3.84033 17.1462Z" fill="#289C8D"/>
</g>
<defs>
<clipPath id="clip0_308_17886">
<rect width="32" height="32" fill="white" transform="translate(0.365723 0.921997)"/>
</clipPath>
</defs>
</svg>
