<svg width="33" height="33" viewBox="0 0 33 33" fill="none" xmlns="http://www.w3.org/2000/svg">
<g clip-path="url(#clip0_308_17932)">
<path d="M4.06592 11.222C4.06592 10.504 4.64795 9.922 5.36592 9.922H25.5659C26.2839 9.922 26.8659 10.504 26.8659 11.222V26.622C26.8659 27.34 26.2839 27.922 25.5659 27.922H5.36592C4.64795 27.922 4.06592 27.34 4.06592 26.622V11.222Z" fill="#478179" stroke="#478179" stroke-width="1.3" stroke-linecap="round" stroke-linejoin="round"/>
<path fill-rule="evenodd" clip-rule="evenodd" d="M29.0708 11.422C29.0708 12.6059 28.7543 13.7159 28.2012 14.6719H28.206C26.3609 18.443 24.0042 20.7555 23.0315 21.6095C22.7694 21.8395 22.3912 21.84 22.1285 21.6107C21.1514 20.7578 18.7819 18.4449 16.9372 14.6719H16.9404C16.3873 13.7159 16.0708 12.6059 16.0708 11.422C16.0708 7.83215 18.9809 4.922 22.5708 4.922C26.1607 4.922 29.0708 7.83215 29.0708 11.422ZM22.5708 13.8594C23.917 13.8594 25.0083 12.7681 25.0083 11.4219C25.0083 10.0757 23.917 8.98443 22.5708 8.98443C21.2247 8.98443 20.1333 10.0757 20.1333 11.4219C20.1333 12.7681 21.2247 13.8594 22.5708 13.8594Z" fill="#FEAA35"/>
<circle cx="22.5708" cy="11.4219" r="2.4375" fill="white" stroke="#FEAA35" stroke-width="0.6"/>
<path fill-rule="evenodd" clip-rule="evenodd" d="M2.27344 17.1462C2.27344 16.7872 2.56445 16.4962 2.92344 16.4962H12.9648C14.3528 16.4962 15.4779 17.6214 15.4779 19.0094C15.4779 20.3973 14.3528 21.5225 12.9648 21.5225H9.25119C8.58119 21.5225 8.03805 22.0656 8.03805 22.7356C8.03805 23.4056 8.58119 23.9488 9.25119 23.9488H22.4646C22.8236 23.9488 23.1146 24.2398 23.1146 24.5988C23.1146 24.9577 22.8236 25.2488 22.4646 25.2488H9.25119C7.86322 25.2488 6.73805 24.1236 6.73805 22.7356C6.73805 21.3477 7.86322 20.2225 9.25119 20.2225H12.9648C13.6348 20.2225 14.1779 19.6793 14.1779 19.0094C14.1779 18.3394 13.6348 17.7962 12.9648 17.7962H2.92344C2.56445 17.7962 2.27344 17.5052 2.27344 17.1462Z" fill="white"/>
</g>
<defs>
<clipPath id="clip0_308_17932">
<rect width="32" height="32" fill="white" transform="translate(0.365723 0.921997)"/>
</clipPath>
</defs>
</svg>
