<svg width="33" height="33" viewBox="0 0 33 33" fill="none" xmlns="http://www.w3.org/2000/svg">
<g opacity="0.5" clip-path="url(#clip0_308_17915)">
<path d="M4.65672 11.913L15.491 6.64285C16.0433 6.37419 16.6884 6.37419 17.2407 6.64285L21.0049 8.47392M4.65672 11.913V26.3266C4.65672 27.0446 5.23875 27.6266 5.95672 27.6266H11.8473M4.65672 11.913L1.86583 13.2706M28.0749 11.913V26.3266C28.0749 27.0446 27.4929 27.6266 26.7749 27.6266H21.0049M28.0749 11.913L21.0049 8.47392M28.0749 11.913L30.8658 13.2706M21.0049 8.47392V27.6266M21.0049 27.6266H11.8473M24.4613 20.2764H11.8473M1.86572 20.2764H11.8473M11.8473 20.2764V27.6266M7.89468 15.6977H16.3658" stroke="#289C8D" stroke-width="1.3" stroke-linecap="round" stroke-linejoin="round"/>
</g>
<defs>
<clipPath id="clip0_308_17915">
<rect width="32" height="32" fill="white" transform="translate(0.365723 0.921997)"/>
</clipPath>
</defs>
</svg>
