<svg width="33" height="33" viewBox="0 0 33 33" fill="none" xmlns="http://www.w3.org/2000/svg">
<path d="M4.82033 12.0288L9.97739 28.34C10.1089 28.7559 10.4947 29.0385 10.9309 29.0385H12.1557C12.4833 29.0385 12.7224 28.7287 12.6393 28.4117L9.24958 15.4828C9.09621 14.8979 9.36644 14.2844 9.90156 14.0028L16.343 10.6122C16.8314 10.3551 17.429 10.4345 17.8334 10.8102L23.2963 15.8855C23.6272 16.193 23.7748 16.6502 23.6861 17.0932L21.2936 29.0385L27.5596 15.9733C27.8019 15.4681 27.6933 14.8646 27.2901 14.4756L17.4661 4.99618C17.0578 4.60229 16.4414 4.51857 15.9429 4.78932L5.43936 10.4945C4.89222 10.7917 4.63263 11.4351 4.82033 12.0288Z" stroke="#289C8D" stroke-width="1.3" stroke-linecap="round" stroke-linejoin="round"/>
<path d="M16.4036 15.8695L13.4934 17.3554C13.0892 17.5618 12.8746 18.0145 12.9708 18.458L15.1459 28.4868C15.2158 28.8087 15.5006 29.0384 15.83 29.0384H17.8443C18.1778 29.0384 18.465 28.8032 18.5306 28.4762L20.3812 19.2568C20.4506 18.9113 20.333 18.5548 20.0716 18.3184L17.5292 16.0185C17.2214 15.74 16.7734 15.6807 16.4036 15.8695Z" stroke="#289C8D" stroke-width="1.3" stroke-linecap="round" stroke-linejoin="round"/>
</svg>
