<svg width="33" height="33" viewBox="0 0 33 33" fill="none" xmlns="http://www.w3.org/2000/svg">
<path d="M4.82179 12.0288L9.97885 28.34C10.1103 28.7559 10.4962 29.0385 10.9323 29.0385H12.1571C12.4848 29.0385 12.7239 28.7287 12.6408 28.4117L9.25104 15.4828C9.09768 14.8979 9.36791 14.2844 9.90302 14.0028L16.3445 10.6122C16.8329 10.3551 17.4304 10.4345 17.8348 10.8102L23.2977 15.8855C23.6287 16.193 23.7763 16.6502 23.6876 17.0932L21.295 29.0385L27.5611 15.9733C27.8034 15.4681 27.6948 14.8646 27.2916 14.4756L17.4675 4.99618C17.0593 4.60229 16.4428 4.51857 15.9443 4.78932L5.44082 10.4945C4.89369 10.7917 4.6341 11.4351 4.82179 12.0288Z" fill="#478179" stroke="#478179" stroke-linecap="round" stroke-linejoin="round"/>
<path d="M16.4051 15.8695L13.4948 17.3554C13.0906 17.5618 12.8761 18.0145 12.9723 18.458L15.1474 28.4868C15.2172 28.8087 15.5021 29.0384 15.8315 29.0384H17.8458C18.1793 29.0384 18.4664 28.8032 18.5321 28.4762L20.3827 19.2568C20.4521 18.9113 20.3344 18.5548 20.0731 18.3184L17.5307 16.0185C17.2228 15.74 16.7749 15.6807 16.4051 15.8695Z" fill="#FEAA35" stroke="#FEAA35" stroke-linecap="round" stroke-linejoin="round"/>
</svg>
