<svg width="49" height="49" viewBox="0 0 49 49" fill="none" xmlns="http://www.w3.org/2000/svg">
<mask id="mask0_803_30564" style="mask-type:alpha" maskUnits="userSpaceOnUse" x="0" y="0" width="49" height="49">
<path d="M24.5 48.0527C37.7548 48.0527 48.5 37.3076 48.5 24.0527C48.5 10.7979 37.7548 0.0527344 24.5 0.0527344C11.2452 0.0527344 0.5 10.7979 0.5 24.0527C0.5 37.3076 11.2452 48.0527 24.5 48.0527Z" fill="#D0D644"/>
</mask>
<g mask="url(#mask0_803_30564)">
<path d="M24.5 48.0529C37.7548 48.0529 48.5 37.3077 48.5 24.0529C48.5 10.798 37.7548 0.0528564 24.5 0.0528564C11.2452 0.0528564 0.5 10.798 0.5 24.0529C0.5 37.3077 11.2452 48.0529 24.5 48.0529Z" fill="white"/>
<path d="M24.5 48.0529C37.7548 48.0529 48.5 37.3077 48.5 24.0529C48.5 10.798 37.7548 0.0528564 24.5 0.0528564C11.2452 0.0528564 0.5 10.798 0.5 24.0529C0.5 37.3077 11.2452 48.0529 24.5 48.0529Z" fill="#289C8D" fill-opacity="0.16"/>
</g>
<path d="M19.1667 12.0527H14.5C13.3954 12.0527 12.5 12.9482 12.5 14.0527V18.7194" stroke="#289C8D" stroke-width="2" stroke-linejoin="round"/>
<path d="M19.1667 36.0527H14.5C13.3954 36.0527 12.5 35.1573 12.5 34.0527V29.3861" stroke="#289C8D" stroke-width="2" stroke-linejoin="round"/>
<path d="M29.8333 12.0527H34.5C35.6046 12.0527 36.5 12.9482 36.5 14.0527V18.7194" stroke="#289C8D" stroke-width="2" stroke-linejoin="round"/>
<path d="M29.8333 36.0527H34.5C35.6046 36.0527 36.5 35.1573 36.5 34.0527V29.3861" stroke="#289C8D" stroke-width="2" stroke-linejoin="round"/>
<path fill-rule="evenodd" clip-rule="evenodd" d="M24.478 28.189L21.1768 19.6855H19.1473L15.8333 28.4203H17.927L18.595 26.5834H21.7163L22.3971 28.4203L24.478 28.189ZM19.1858 24.9135L20.1235 22.306L21.0998 24.9135H19.1858Z" fill="#289C8D"/>
<path fill-rule="evenodd" clip-rule="evenodd" d="M29.9938 26.9559C30.2507 27.444 30.5119 27.9321 30.7774 28.4203H33.1666C32.8326 27.8379 32.4986 27.2513 32.1647 26.6605C31.8393 26.061 31.5096 25.4659 31.1756 24.875C31.5438 24.6523 31.8478 24.3483 32.0876 23.963C32.3359 23.5691 32.4601 23.1066 32.4601 22.5757C32.4601 21.5652 32.109 20.833 31.4068 20.3792C30.7046 19.9168 29.8697 19.6855 28.902 19.6855H25.5494V28.4203H27.656V25.4916H29.0048C29.0818 25.4916 29.1546 25.4873 29.2231 25.4787C29.48 25.9668 29.7369 26.4592 29.9938 26.9559ZM27.656 21.3811H28.8378C29.2831 21.3811 29.6299 21.4796 29.8782 21.6765C30.1351 21.8735 30.2636 22.1818 30.2636 22.6014C30.2636 22.9868 30.1308 23.2865 29.8654 23.5006C29.6085 23.7061 29.2745 23.8088 28.8635 23.8088H27.656V21.3811Z" fill="#289C8D"/>
</svg>
