<svg width="22" height="28" viewBox="0 0 22 28" fill="none" xmlns="http://www.w3.org/2000/svg">
<path d="M0.550212 25.188C1.41663 23.075 3.87414 19.6673 10.8523 19.6673C17.8306 19.6673 20.2881 23.075 21.1545 25.188C21.4623 25.9388 20.8488 26.6789 20.0373 26.6789H1.66735C0.85593 26.6789 0.242374 25.9388 0.550212 25.188Z" fill="#478179"/>
<mask id="path-2-outside-1_1590_16168" maskUnits="userSpaceOnUse" x="4.47925" y="17.0566" width="13" height="11" fill="black">
<rect fill="white" x="4.47925" y="17.0566" width="13" height="11"/>
<path fill-rule="evenodd" clip-rule="evenodd" d="M6.47925 19.4806L10.8517 26.3975L15.2243 19.4804C13.9601 19.2119 12.5117 19.0566 10.8523 19.0566C9.19241 19.0566 7.74369 19.212 6.47925 19.4806Z"/>
</mask>
<path fill-rule="evenodd" clip-rule="evenodd" d="M6.47925 19.4806L10.8517 26.3975L15.2243 19.4804C13.9601 19.2119 12.5117 19.0566 10.8523 19.0566C9.19241 19.0566 7.74369 19.212 6.47925 19.4806Z" fill="#FEAA35"/>
<path d="M10.8517 26.3975L9.75284 27.0921C9.99108 27.469 10.4058 27.6975 10.8517 27.6975C11.2976 27.6975 11.7123 27.469 11.9505 27.0921L10.8517 26.3975ZM6.47925 19.4806L6.20909 18.209C5.79301 18.2974 5.4465 18.5837 5.2813 18.9757C5.1161 19.3677 5.15311 19.8157 5.38039 20.1752L6.47925 19.4806ZM15.2243 19.4804L16.3231 20.175C16.5504 19.8154 16.5874 19.3674 16.4222 18.9754C16.257 18.5835 15.9105 18.2971 15.4944 18.2087L15.2243 19.4804ZM11.9505 25.7028L7.5781 18.786L5.38039 20.1752L9.75284 27.0921L11.9505 25.7028ZM14.1254 18.7857L9.75284 25.7028L11.9505 27.0921L16.3231 20.175L14.1254 18.7857ZM10.8523 20.3566C12.4307 20.3566 13.7879 20.5043 14.9542 20.752L15.4944 18.2087C14.1323 17.9195 12.5927 17.7566 10.8523 17.7566V20.3566ZM6.74941 20.7522C7.91593 20.5044 9.27341 20.3566 10.8523 20.3566V17.7566C9.11141 17.7566 7.57144 17.9195 6.20909 18.209L6.74941 20.7522Z" fill="white" mask="url(#path-2-outside-1_1590_16168)"/>
<mask id="path-4-outside-2_1590_16168" maskUnits="userSpaceOnUse" x="1.11255" y="-0.623032" width="20" height="23" fill="black">
<rect fill="white" x="1.11255" y="-0.623032" width="20" height="23"/>
<path fill-rule="evenodd" clip-rule="evenodd" d="M13.9324 3.49366C14.1678 3.58185 14.4362 3.4966 14.565 3.28071L15.5595 1.61273C15.6908 1.39246 15.9686 1.30542 16.1848 1.44325C17.2748 2.13793 18.5947 3.70664 18.3711 5.60449C18.3345 5.91496 18.2647 6.19988 18.1709 6.46103C18.1119 6.62523 18.1276 6.80866 18.2221 6.9553C19.102 8.32011 19.6125 9.94544 19.6125 11.69C19.6125 16.5225 15.695 20.44 10.8625 20.44C6.03006 20.44 2.11255 16.5225 2.11255 11.69C2.11255 6.85752 6.03006 2.94 10.8625 2.94C11.9427 2.94 12.9772 3.13573 13.9324 3.49366Z"/>
</mask>
<path fill-rule="evenodd" clip-rule="evenodd" d="M13.9324 3.49366C14.1678 3.58185 14.4362 3.4966 14.565 3.28071L15.5595 1.61273C15.6908 1.39246 15.9686 1.30542 16.1848 1.44325C17.2748 2.13793 18.5947 3.70664 18.3711 5.60449C18.3345 5.91496 18.2647 6.19988 18.1709 6.46103C18.1119 6.62523 18.1276 6.80866 18.2221 6.9553C19.102 8.32011 19.6125 9.94544 19.6125 11.69C19.6125 16.5225 15.695 20.44 10.8625 20.44C6.03006 20.44 2.11255 16.5225 2.11255 11.69C2.11255 6.85752 6.03006 2.94 10.8625 2.94C11.9427 2.94 12.9772 3.13573 13.9324 3.49366Z" fill="#478179"/>
<path d="M18.3711 5.60449L17.3779 5.4875V5.4875L18.3711 5.60449ZM18.1709 6.46103L19.112 6.7991L18.1709 6.46103ZM18.2221 6.9553L17.3817 7.49714L18.2221 6.9553ZM14.565 3.28071L13.7061 2.76859L14.565 3.28071ZM15.5595 1.61273L16.4184 2.12484L15.5595 1.61273ZM16.1848 1.44325L15.6474 2.28654L16.1848 1.44325ZM14.7006 1.10061L13.7061 2.76859L15.4239 3.79282L16.4184 2.12484L14.7006 1.10061ZM19.3642 5.72148C19.6505 3.29116 17.9834 1.4037 16.7223 0.599957L15.6474 2.28654C16.5662 2.87216 17.5388 4.12212 17.3779 5.4875L19.3642 5.72148ZM19.112 6.7991C19.2309 6.46802 19.3186 6.109 19.3642 5.72148L17.3779 5.4875C17.3504 5.72093 17.2985 5.93174 17.2298 6.12296L19.112 6.7991ZM17.3817 7.49714C18.1605 8.70528 18.6125 10.1433 18.6125 11.69H20.6125C20.6125 9.74755 20.0435 7.93495 19.0626 6.41347L17.3817 7.49714ZM18.6125 11.69C18.6125 15.9702 15.1428 19.44 10.8625 19.44V21.44C16.2473 21.44 20.6125 17.0748 20.6125 11.69H18.6125ZM10.8625 19.44C6.58234 19.44 3.11255 15.9702 3.11255 11.69H1.11255C1.11255 17.0748 5.47777 21.44 10.8625 21.44V19.44ZM3.11255 11.69C3.11255 7.4098 6.58234 3.94 10.8625 3.94V1.94C5.47777 1.94 1.11255 6.30523 1.11255 11.69H3.11255ZM10.8625 3.94C11.8211 3.94 12.7368 4.11356 13.5815 4.43008L14.2833 2.55724C13.2176 2.15791 12.0644 1.94 10.8625 1.94V3.94ZM17.2298 6.12296C17.0734 6.55828 17.1062 7.06992 17.3817 7.49714L19.0626 6.41347C19.149 6.5474 19.1504 6.69218 19.112 6.7991L17.2298 6.12296ZM13.7061 2.76859C13.8406 2.54299 14.095 2.48668 14.2833 2.55724L13.5815 4.43008C14.2406 4.67703 15.0319 4.45022 15.4239 3.79282L13.7061 2.76859ZM16.4184 2.12484C16.3048 2.31531 15.976 2.49597 15.6474 2.28654L16.7223 0.599957C15.9612 0.11487 15.0768 0.469607 14.7006 1.10061L16.4184 2.12484Z" fill="white" mask="url(#path-4-outside-2_1590_16168)"/>
<path d="M8.75244 15.7338C8.95867 15.9617 9.80245 16.4338 10.8524 16.4338C11.9024 16.4338 12.7462 15.9617 12.9524 15.7338" stroke="white" stroke-width="1.31606" stroke-linecap="round" stroke-linejoin="round"/>
</svg>
